<svg xmlns="http://www.w3.org/2000/svg" aria-label="Stacked etcd versus external etcd HA topologies" class="diagram" role="img" viewBox="0 0 1120 430">
<defs><marker id="arrowHA" markerHeight="10" markerWidth="10" orient="auto" refX="8" refY="3"><path class="arrow" d="M0,0 L0,6 L9,3 z" fill="#64748b"></path></marker></defs>
<text class="title" x="40" y="40" fill="#111827" font-size="28" font-weight="900">Stacked etcd</text>
<rect class="gate" height="52" rx="14" width="220" x="120" y="64" fill="#e5edff" stroke="#9bb4ee" stroke-width="2"></rect><text class="label" x="150" y="97" fill="#111827" font-size="20" font-weight="800">Load balancer</text>
<rect class="node" height="118" rx="16" width="200" x="40" y="160" fill="#ffffff" stroke="#9bb4ee" stroke-width="2"></rect><text class="tiny" x="58" y="184" fill="#64748b" font-size="16" font-weight="700">control-plane 1</text>
<rect class="node api" height="40" rx="10" width="164" x="58" y="196" fill="#dce8ff" stroke="#9bb4ee" stroke-width="2"></rect><text class="tiny" x="78" y="221" fill="#64748b" font-size="16" font-weight="700">apiserver</text>
<rect class="node etcd" height="40" rx="10" width="164" x="58" y="240" fill="#fef0d4" stroke="#9bb4ee" stroke-width="2"></rect><text class="tiny" x="98" y="265" fill="#64748b" font-size="16" font-weight="700">etcd</text>
<rect class="node" height="118" rx="16" width="200" x="270" y="160" fill="#ffffff" stroke="#9bb4ee" stroke-width="2"></rect><text class="tiny" x="288" y="184" fill="#64748b" font-size="16" font-weight="700">control-plane 2</text>
<rect class="node api" height="40" rx="10" width="164" x="288" y="196" fill="#dce8ff" stroke="#9bb4ee" stroke-width="2"></rect><text class="tiny" x="308" y="221" fill="#64748b" font-size="16" font-weight="700">apiserver</text>
<rect class="node etcd" height="40" rx="10" width="164" x="288" y="240" fill="#fef0d4" stroke="#9bb4ee" stroke-width="2"></rect><text class="tiny" x="328" y="265" fill="#64748b" font-size="16" font-weight="700">etcd</text>
<path class="line" d="M200 116 C160 140 150 150 140 160" marker-end="url(#arrowHA)" fill="none" stroke="#64748b" stroke-width="3"></path>
<path class="line" d="M250 116 C300 140 350 150 370 160" marker-end="url(#arrowHA)" fill="none" stroke="#64748b" stroke-width="3"></path>
<text class="tiny" x="40" y="320" fill="#64748b" font-size="16" font-weight="700">etcd member lives on every control-plane node</text>
<line class="divider" x1="560" x2="560" y1="40" y2="380" stroke="#d9e2ef" stroke-width="2"></line>
<text class="title" x="620" y="40" fill="#111827" font-size="28" font-weight="900">External etcd</text>
<rect class="gate" height="52" rx="14" width="220" x="700" y="64" fill="#e5edff" stroke="#9bb4ee" stroke-width="2"></rect><text class="label" x="730" y="97" fill="#111827" font-size="20" font-weight="800">Load balancer</text>
<rect class="node api" height="70" rx="16" width="180" x="620" y="160" fill="#dce8ff" stroke="#9bb4ee" stroke-width="2"></rect><text class="label" x="648" y="201" fill="#111827" font-size="20" font-weight="800">apiserver 1</text>
<rect class="node api" height="70" rx="16" width="180" x="840" y="160" fill="#dce8ff" stroke="#9bb4ee" stroke-width="2"></rect><text class="label" x="868" y="201" fill="#111827" font-size="20" font-weight="800">apiserver 2</text>
<rect class="box" height="96" rx="16" width="360" x="640" y="270" fill="#eef4ff" stroke="#d9e2ef" stroke-width="2"></rect><text class="tiny" x="658" y="294" fill="#64748b" font-size="16" font-weight="700">dedicated etcd cluster</text>
<rect class="node etcd" height="38" rx="10" width="100" x="658" y="306" fill="#fef0d4" stroke="#9bb4ee" stroke-width="2"></rect><text class="tiny" x="690" y="330" fill="#64748b" font-size="16" font-weight="700">etcd</text>
<rect class="node etcd" height="38" rx="10" width="100" x="770" y="306" fill="#fef0d4" stroke="#9bb4ee" stroke-width="2"></rect><text class="tiny" x="802" y="330" fill="#64748b" font-size="16" font-weight="700">etcd</text>
<rect class="node etcd" height="38" rx="10" width="100" x="882" y="306" fill="#fef0d4" stroke="#9bb4ee" stroke-width="2"></rect><text class="tiny" x="914" y="330" fill="#64748b" font-size="16" font-weight="700">etcd</text>
<path class="line" d="M790 116 C740 138 720 150 710 160" marker-end="url(#arrowHA)" fill="none" stroke="#64748b" stroke-width="3"></path>
<path class="line" d="M830 116 C880 138 920 150 930 160" marker-end="url(#arrowHA)" fill="none" stroke="#64748b" stroke-width="3"></path>
<path class="line dashed" d="M710 230 V270" marker-end="url(#arrowHA)" fill="none" stroke="#64748b" stroke-width="3" stroke-dasharray="8 8"></path>
<path class="line dashed" d="M930 230 C900 248 850 258 820 270" marker-end="url(#arrowHA)" fill="none" stroke="#64748b" stroke-width="3" stroke-dasharray="8 8"></path>
</svg>
